<svg width="538" height="333" viewBox="0 0 538 333" fill="none" xmlns="http://www.w3.org/2000/svg">
<path fill-rule="evenodd" clip-rule="evenodd" d="M222.141 173.48V224.657H250.107V162.008C250.107 145.8 241.03 134.493 221.057 134.493C206.339 134.493 195.994 141.238 190.72 147.43V103.164H162.754V224.657H190.72V167.831C193.991 163.823 199.449 159.271 207.616 159.271C216.509 159.271 222.141 162.726 222.141 173.48" fill="black"/>
<path fill-rule="evenodd" clip-rule="evenodd" d="M107.905 134.498C94.4732 134.498 79.3967 138.506 68.1328 148.153L78.4871 167.652C85.5705 161.644 94.2894 158.179 103.008 158.179C114.262 158.179 120.804 163.469 120.804 171.117V179.852C115.54 173.291 105.186 169.467 93.5636 169.467C80.1225 169.467 63.4105 176.581 63.4105 197.884C63.4105 217.558 80.1225 226.846 93.5636 226.846C104.827 226.846 115.356 222.478 120.804 215.927V224.662H148.77V169.661C148.77 142.33 128.981 134.498 107.905 134.498V134.498ZM120.804 202.077C117.891 206.27 111.359 208.444 105.186 208.444C97.928 208.444 91.2026 205.173 91.2026 198.253C91.2026 191.333 97.928 188.043 105.186 188.043C111.359 188.043 117.891 190.052 120.804 194.245V202.077Z" fill="black"/>
<path fill-rule="evenodd" clip-rule="evenodd" d="M376.146 134.498C362.346 134.498 350.899 142.515 345.818 150.172C342.189 139.787 333.654 134.498 320.929 134.498C307.14 134.498 295.876 142.33 292.063 147.435V136.682H264.097V224.662H292.063V167.827C294.976 164.187 300.231 159.276 307.866 159.276C316.217 159.276 319.304 164.371 319.304 171.117V224.662H347.27V167.827C349.989 164.187 355.437 159.276 363.072 159.276C371.433 159.276 374.694 164.371 374.694 171.117V224.662H402.486V160.916C402.486 142.874 392.316 134.498 376.146 134.498" fill="black"/>
<path fill-rule="evenodd" clip-rule="evenodd" d="M526.858 310.278C522.223 316.703 513.223 318.149 506.827 313.491C500.411 308.852 498.979 299.825 503.614 293.4C508.239 286.985 517.239 285.539 523.645 290.188C530.051 294.837 531.483 303.853 526.858 310.278M528.561 283.365C519.271 276.61 506.556 277.988 498.824 286.082C497.256 287.577 495.166 288.121 494.305 285.675C490.589 275.144 485.141 263.352 471.593 247.852L517.81 183.796C523.568 175.818 525.048 160.153 517.084 154.379L458.907 234.993V260.965C474.622 269.01 486.321 281.948 493.318 307.745C494.76 313.209 497.643 317.237 501.901 320.324C512.052 327.69 526.306 325.409 533.661 315.218C541.015 305.018 538.722 290.731 528.561 283.365" fill="black"/>
<path fill-rule="evenodd" clip-rule="evenodd" d="M452.093 298.38V319.15H431.385V333H465.902V298.38H452.093Z" fill="black"/>
<path fill-rule="evenodd" clip-rule="evenodd" d="M355.789 332.997H412.486V319.147H355.789V332.997ZM280.194 332.997H336.89V319.147H280.194V332.997ZM204.608 332.997H261.304V319.147H204.608V332.997ZM129.012 332.997H185.709V319.147H129.012V332.997ZM53.4164 332.997H110.113V319.147H53.4164V332.997Z" fill="black"/>
<path fill-rule="evenodd" clip-rule="evenodd" d="M0 298.38V333H34.5174V319.15H13.8089V298.38H0Z" fill="black"/>
<path fill-rule="evenodd" clip-rule="evenodd" d="M0 115.768H13.8089V54.8953H0V115.768ZM0 196.926H13.8089V136.062H0V196.926ZM0 278.093H13.8089V217.22H0V278.093Z" fill="black"/>
<path fill-rule="evenodd" clip-rule="evenodd" d="M0 0V34.6196H13.8089V13.8498H34.5174V0H0Z" fill="black"/>
<path fill-rule="evenodd" clip-rule="evenodd" d="M355.789 13.8507H412.486V0.000976562H355.789V13.8507ZM280.194 13.8507H336.89V0.000976562H280.194V13.8507ZM204.608 13.8507H261.304V0.000976562H204.608V13.8507ZM129.012 13.8507H185.709V0.000976562H129.012V13.8507ZM53.4164 13.8507H110.113V0.000980119H53.4164V13.8507Z" fill="black"/>
<path fill-rule="evenodd" clip-rule="evenodd" d="M431.385 0V13.8498H452.093V34.6196H465.902V0H431.385Z" fill="black"/>
<path fill-rule="evenodd" clip-rule="evenodd" d="M465.902 278.093H452.093V217.22H465.902V278.093ZM465.902 196.926H452.093V136.053H465.902V196.926ZM465.902 115.778H452.093V54.905H465.902V115.778Z" fill="black"/>
</svg>
